<mxfile host="65bd71144e">
    <diagram name="Page-1" id="XaqkVeaKqzgGmgDQ_15t">
        <mxGraphModel dx="1520" dy="1069" grid="1" gridSize="10" guides="1" tooltips="1" connect="1" arrows="1" fold="1" page="1" pageScale="1" pageWidth="850" pageHeight="1100" math="0" shadow="0">
            <root>
                <mxCell id="0"/>
                <mxCell id="1" parent="0"/>
                <mxCell id="ThBzMi0ufhQ06vsTrHwR-113" value="" style="rounded=0;whiteSpace=wrap;html=1;" parent="1" vertex="1">
                    <mxGeometry x="90" y="80" width="10" height="280" as="geometry"/>
                </mxCell>
                <mxCell id="ThBzMi0ufhQ06vsTrHwR-2" value="P" style="rounded=0;whiteSpace=wrap;html=1;" parent="1" vertex="1">
                    <mxGeometry x="440" y="40" width="40" height="40" as="geometry"/>
                </mxCell>
                <mxCell id="ThBzMi0ufhQ06vsTrHwR-3" value="L" style="rounded=0;whiteSpace=wrap;html=1;" parent="1" vertex="1">
                    <mxGeometry x="600" y="40" width="40" height="40" as="geometry"/>
                </mxCell>
                <mxCell id="ThBzMi0ufhQ06vsTrHwR-4" value="" style="endArrow=none;dashed=1;html=1;rounded=0;entryX=0.5;entryY=1;entryDx=0;entryDy=0;" parent="1" target="ThBzMi0ufhQ06vsTrHwR-2" edge="1">
                    <mxGeometry width="50" height="50" relative="1" as="geometry">
                        <mxPoint x="460" y="280" as="sourcePoint"/>
                        <mxPoint x="530" y="40" as="targetPoint"/>
                    </mxGeometry>
                </mxCell>
                <mxCell id="ThBzMi0ufhQ06vsTrHwR-5" value="" style="endArrow=none;dashed=1;html=1;rounded=0;entryX=0.5;entryY=1;entryDx=0;entryDy=0;" parent="1" edge="1">
                    <mxGeometry width="50" height="50" relative="1" as="geometry">
                        <mxPoint x="619.5" y="280" as="sourcePoint"/>
                        <mxPoint x="619.5" y="80" as="targetPoint"/>
                    </mxGeometry>
                </mxCell>
                <mxCell id="ThBzMi0ufhQ06vsTrHwR-6" value="" style="endArrow=classic;html=1;rounded=0;" parent="1" edge="1">
                    <mxGeometry width="50" height="50" relative="1" as="geometry">
                        <mxPoint x="460" y="120" as="sourcePoint"/>
                        <mxPoint x="620" y="120" as="targetPoint"/>
                    </mxGeometry>
                </mxCell>
                <mxCell id="ThBzMi0ufhQ06vsTrHwR-7" value="pressButton(floor:1..5)" style="text;html=1;align=center;verticalAlign=middle;resizable=0;points=[];autosize=1;strokeColor=none;fillColor=none;" parent="1" vertex="1">
                    <mxGeometry x="470" y="98" width="140" height="30" as="geometry"/>
                </mxCell>
                <mxCell id="ThBzMi0ufhQ06vsTrHwR-9" value="loop(5)" style="shape=umlFrame;whiteSpace=wrap;html=1;pointerEvents=0;" parent="1" vertex="1">
                    <mxGeometry x="390" y="140" width="280" height="80" as="geometry"/>
                </mxCell>
                <mxCell id="ThBzMi0ufhQ06vsTrHwR-10" value="" style="edgeStyle=elbowEdgeStyle;elbow=vertical;endArrow=classic;html=1;curved=0;rounded=0;endSize=8;startSize=8;" parent="1" edge="1">
                    <mxGeometry width="50" height="50" relative="1" as="geometry">
                        <mxPoint x="620" y="180" as="sourcePoint"/>
                        <mxPoint x="620" y="200" as="targetPoint"/>
                        <Array as="points">
                            <mxPoint x="660" y="180"/>
                        </Array>
                    </mxGeometry>
                </mxCell>
                <mxCell id="ThBzMi0ufhQ06vsTrHwR-11" value="startMoving()" style="text;html=1;align=center;verticalAlign=middle;resizable=0;points=[];autosize=1;strokeColor=none;fillColor=none;" parent="1" vertex="1">
                    <mxGeometry x="645" y="150" width="90" height="30" as="geometry"/>
                </mxCell>
                <mxCell id="ThBzMi0ufhQ06vsTrHwR-12" value="" style="endArrow=classic;html=1;rounded=0;" parent="1" edge="1">
                    <mxGeometry width="50" height="50" relative="1" as="geometry">
                        <mxPoint x="620" y="210" as="sourcePoint"/>
                        <mxPoint x="460" y="210" as="targetPoint"/>
                    </mxGeometry>
                </mxCell>
                <mxCell id="ThBzMi0ufhQ06vsTrHwR-13" value="floorReached(floor)" style="text;html=1;align=center;verticalAlign=middle;resizable=0;points=[];autosize=1;strokeColor=none;fillColor=none;" parent="1" vertex="1">
                    <mxGeometry x="480" y="188" width="130" height="30" as="geometry"/>
                </mxCell>
                <mxCell id="ThBzMi0ufhQ06vsTrHwR-14" value="P" style="rounded=0;whiteSpace=wrap;html=1;" parent="1" vertex="1">
                    <mxGeometry x="760" y="40" width="40" height="40" as="geometry"/>
                </mxCell>
                <mxCell id="ThBzMi0ufhQ06vsTrHwR-15" value="L" style="rounded=0;whiteSpace=wrap;html=1;" parent="1" vertex="1">
                    <mxGeometry x="920" y="40" width="40" height="40" as="geometry"/>
                </mxCell>
                <mxCell id="ThBzMi0ufhQ06vsTrHwR-16" value="" style="endArrow=none;dashed=1;html=1;rounded=0;entryX=0.5;entryY=1;entryDx=0;entryDy=0;" parent="1" target="ThBzMi0ufhQ06vsTrHwR-14" edge="1">
                    <mxGeometry width="50" height="50" relative="1" as="geometry">
                        <mxPoint x="780" y="220" as="sourcePoint"/>
                        <mxPoint x="850" y="40" as="targetPoint"/>
                    </mxGeometry>
                </mxCell>
                <mxCell id="ThBzMi0ufhQ06vsTrHwR-17" value="" style="endArrow=none;dashed=1;html=1;rounded=0;entryX=0.5;entryY=1;entryDx=0;entryDy=0;" parent="1" edge="1">
                    <mxGeometry width="50" height="50" relative="1" as="geometry">
                        <mxPoint x="940" y="220" as="sourcePoint"/>
                        <mxPoint x="939.5" y="80" as="targetPoint"/>
                    </mxGeometry>
                </mxCell>
                <mxCell id="ThBzMi0ufhQ06vsTrHwR-18" value="" style="endArrow=classic;html=1;rounded=0;" parent="1" edge="1">
                    <mxGeometry width="50" height="50" relative="1" as="geometry">
                        <mxPoint x="780" y="120" as="sourcePoint"/>
                        <mxPoint x="940" y="120" as="targetPoint"/>
                    </mxGeometry>
                </mxCell>
                <mxCell id="ThBzMi0ufhQ06vsTrHwR-19" value="pressDoors()" style="text;html=1;align=center;verticalAlign=middle;resizable=0;points=[];autosize=1;strokeColor=none;fillColor=none;" parent="1" vertex="1">
                    <mxGeometry x="815" y="98" width="90" height="30" as="geometry"/>
                </mxCell>
                <mxCell id="ThBzMi0ufhQ06vsTrHwR-23" value="" style="endArrow=classic;html=1;rounded=0;" parent="1" edge="1">
                    <mxGeometry width="50" height="50" relative="1" as="geometry">
                        <mxPoint x="780" y="162" as="sourcePoint"/>
                        <mxPoint x="940" y="162" as="targetPoint"/>
                    </mxGeometry>
                </mxCell>
                <mxCell id="ThBzMi0ufhQ06vsTrHwR-24" value="pressButton(floor)" style="text;html=1;align=center;verticalAlign=middle;resizable=0;points=[];autosize=1;strokeColor=none;fillColor=none;" parent="1" vertex="1">
                    <mxGeometry x="800" y="140" width="120" height="30" as="geometry"/>
                </mxCell>
                <mxCell id="ThBzMi0ufhQ06vsTrHwR-25" value="P" style="rounded=0;whiteSpace=wrap;html=1;" parent="1" vertex="1">
                    <mxGeometry x="1040" y="40" width="40" height="40" as="geometry"/>
                </mxCell>
                <mxCell id="ThBzMi0ufhQ06vsTrHwR-26" value="L" style="rounded=0;whiteSpace=wrap;html=1;" parent="1" vertex="1">
                    <mxGeometry x="1200" y="40" width="40" height="40" as="geometry"/>
                </mxCell>
                <mxCell id="ThBzMi0ufhQ06vsTrHwR-27" value="" style="endArrow=none;dashed=1;html=1;rounded=0;entryX=0.5;entryY=1;entryDx=0;entryDy=0;" parent="1" target="ThBzMi0ufhQ06vsTrHwR-25" edge="1">
                    <mxGeometry width="50" height="50" relative="1" as="geometry">
                        <mxPoint x="1060" y="280" as="sourcePoint"/>
                        <mxPoint x="1130" y="40" as="targetPoint"/>
                    </mxGeometry>
                </mxCell>
                <mxCell id="ThBzMi0ufhQ06vsTrHwR-28" value="" style="endArrow=none;dashed=1;html=1;rounded=0;entryX=0.5;entryY=1;entryDx=0;entryDy=0;" parent="1" edge="1">
                    <mxGeometry width="50" height="50" relative="1" as="geometry">
                        <mxPoint x="1219.5" y="280" as="sourcePoint"/>
                        <mxPoint x="1219.5" y="80" as="targetPoint"/>
                    </mxGeometry>
                </mxCell>
                <mxCell id="ThBzMi0ufhQ06vsTrHwR-31" value="loop" style="shape=umlFrame;whiteSpace=wrap;html=1;pointerEvents=0;" parent="1" vertex="1">
                    <mxGeometry x="990" y="108" width="280" height="127" as="geometry"/>
                </mxCell>
                <mxCell id="ThBzMi0ufhQ06vsTrHwR-32" value="" style="edgeStyle=elbowEdgeStyle;elbow=vertical;endArrow=classic;html=1;curved=0;rounded=0;endSize=8;startSize=8;" parent="1" edge="1">
                    <mxGeometry width="50" height="50" relative="1" as="geometry">
                        <mxPoint x="1220" y="125" as="sourcePoint"/>
                        <mxPoint x="1220" y="145" as="targetPoint"/>
                        <Array as="points">
                            <mxPoint x="1260" y="125"/>
                        </Array>
                    </mxGeometry>
                </mxCell>
                <mxCell id="ThBzMi0ufhQ06vsTrHwR-33" value="startMoving()" style="text;html=1;align=center;verticalAlign=middle;resizable=0;points=[];autosize=1;strokeColor=none;fillColor=none;" parent="1" vertex="1">
                    <mxGeometry x="1240" y="103" width="90" height="30" as="geometry"/>
                </mxCell>
                <mxCell id="ThBzMi0ufhQ06vsTrHwR-34" value="" style="endArrow=classic;html=1;rounded=0;" parent="1" edge="1">
                    <mxGeometry width="50" height="50" relative="1" as="geometry">
                        <mxPoint x="1220" y="164.5" as="sourcePoint"/>
                        <mxPoint x="1060" y="164.5" as="targetPoint"/>
                    </mxGeometry>
                </mxCell>
                <mxCell id="ThBzMi0ufhQ06vsTrHwR-35" value="floorReached(floor)" style="text;html=1;align=center;verticalAlign=middle;resizable=0;points=[];autosize=1;strokeColor=none;fillColor=none;" parent="1" vertex="1">
                    <mxGeometry x="1080" y="142" width="130" height="30" as="geometry"/>
                </mxCell>
                <mxCell id="ThBzMi0ufhQ06vsTrHwR-36" value="" style="endArrow=classic;html=1;rounded=0;" parent="1" edge="1">
                    <mxGeometry width="50" height="50" relative="1" as="geometry">
                        <mxPoint x="1060" y="205" as="sourcePoint"/>
                        <mxPoint x="1220" y="205" as="targetPoint"/>
                    </mxGeometry>
                </mxCell>
                <mxCell id="ThBzMi0ufhQ06vsTrHwR-37" value="pressDoor" style="text;html=1;align=center;verticalAlign=middle;resizable=0;points=[];autosize=1;strokeColor=none;fillColor=none;" parent="1" vertex="1">
                    <mxGeometry x="1105" y="181" width="80" height="30" as="geometry"/>
                </mxCell>
                <mxCell id="ThBzMi0ufhQ06vsTrHwR-39" value="ignore" style="shape=umlFrame;whiteSpace=wrap;html=1;pointerEvents=0;" parent="1" vertex="1">
                    <mxGeometry x="1040" y="171" width="190" height="50" as="geometry"/>
                </mxCell>
                <mxCell id="ThBzMi0ufhQ06vsTrHwR-41" value="P" style="rounded=0;whiteSpace=wrap;html=1;" parent="1" vertex="1">
                    <mxGeometry x="440" y="320" width="40" height="40" as="geometry"/>
                </mxCell>
                <mxCell id="ThBzMi0ufhQ06vsTrHwR-42" value="L" style="rounded=0;whiteSpace=wrap;html=1;" parent="1" vertex="1">
                    <mxGeometry x="600" y="320" width="40" height="40" as="geometry"/>
                </mxCell>
                <mxCell id="ThBzMi0ufhQ06vsTrHwR-43" value="" style="endArrow=none;dashed=1;html=1;rounded=0;entryX=0.5;entryY=1;entryDx=0;entryDy=0;" parent="1" target="ThBzMi0ufhQ06vsTrHwR-41" edge="1">
                    <mxGeometry width="50" height="50" relative="1" as="geometry">
                        <mxPoint x="460" y="510" as="sourcePoint"/>
                        <mxPoint x="530" y="320" as="targetPoint"/>
                    </mxGeometry>
                </mxCell>
                <mxCell id="ThBzMi0ufhQ06vsTrHwR-44" value="" style="endArrow=none;dashed=1;html=1;rounded=0;entryX=0.5;entryY=1;entryDx=0;entryDy=0;" parent="1" edge="1">
                    <mxGeometry width="50" height="50" relative="1" as="geometry">
                        <mxPoint x="620" y="510" as="sourcePoint"/>
                        <mxPoint x="619.5" y="360" as="targetPoint"/>
                    </mxGeometry>
                </mxCell>
                <mxCell id="ThBzMi0ufhQ06vsTrHwR-47" value="loop&lt;div&gt;{time:3s}&lt;/div&gt;" style="shape=umlFrame;whiteSpace=wrap;html=1;pointerEvents=0;" parent="1" vertex="1">
                    <mxGeometry x="390" y="390" width="280" height="80" as="geometry"/>
                </mxCell>
                <mxCell id="ThBzMi0ufhQ06vsTrHwR-48" value="" style="edgeStyle=elbowEdgeStyle;elbow=vertical;endArrow=classic;html=1;curved=0;rounded=0;endSize=8;startSize=8;" parent="1" edge="1">
                    <mxGeometry width="50" height="50" relative="1" as="geometry">
                        <mxPoint x="620" y="430" as="sourcePoint"/>
                        <mxPoint x="620" y="450" as="targetPoint"/>
                        <Array as="points">
                            <mxPoint x="660" y="430"/>
                        </Array>
                    </mxGeometry>
                </mxCell>
                <mxCell id="ThBzMi0ufhQ06vsTrHwR-49" value="startMoving()" style="text;html=1;align=center;verticalAlign=middle;resizable=0;points=[];autosize=1;strokeColor=none;fillColor=none;" parent="1" vertex="1">
                    <mxGeometry x="645" y="400" width="90" height="30" as="geometry"/>
                </mxCell>
                <mxCell id="ThBzMi0ufhQ06vsTrHwR-50" value="" style="endArrow=classic;html=1;rounded=0;" parent="1" edge="1">
                    <mxGeometry width="50" height="50" relative="1" as="geometry">
                        <mxPoint x="620" y="460" as="sourcePoint"/>
                        <mxPoint x="460" y="460" as="targetPoint"/>
                    </mxGeometry>
                </mxCell>
                <mxCell id="ThBzMi0ufhQ06vsTrHwR-51" value="press" style="text;html=1;align=center;verticalAlign=middle;resizable=0;points=[];autosize=1;strokeColor=none;fillColor=none;" parent="1" vertex="1">
                    <mxGeometry x="520" y="438" width="50" height="30" as="geometry"/>
                </mxCell>
                <mxCell id="ThBzMi0ufhQ06vsTrHwR-52" value="&amp;lt;&amp;lt;active&amp;gt;&amp;gt;&lt;div&gt;Person&lt;/div&gt;" style="swimlane;fontStyle=0;childLayout=stackLayout;horizontal=1;startSize=30;horizontalStack=0;resizeParent=1;resizeParentMax=0;resizeLast=0;collapsible=1;marginBottom=0;whiteSpace=wrap;html=1;" parent="1" vertex="1">
                    <mxGeometry x="805" y="320" width="140" height="150" as="geometry"/>
                </mxCell>
                <mxCell id="ThBzMi0ufhQ06vsTrHwR-53" value="+ pressDoors()" style="text;strokeColor=none;fillColor=none;align=left;verticalAlign=middle;spacingLeft=4;spacingRight=4;overflow=hidden;points=[[0,0.5],[1,0.5]];portConstraint=eastwest;rotatable=0;whiteSpace=wrap;html=1;" parent="ThBzMi0ufhQ06vsTrHwR-52" vertex="1">
                    <mxGeometry y="30" width="140" height="30" as="geometry"/>
                </mxCell>
                <mxCell id="ThBzMi0ufhQ06vsTrHwR-54" value="&amp;lt;&amp;lt;signal&amp;gt;&amp;gt; -&amp;nbsp;&lt;span style=&quot;text-align: center; white-space: nowrap;&quot;&gt;FloorEnum&lt;/span&gt;" style="text;strokeColor=none;fillColor=none;align=left;verticalAlign=middle;spacingLeft=4;spacingRight=4;overflow=hidden;points=[[0,0.5],[1,0.5]];portConstraint=eastwest;rotatable=0;whiteSpace=wrap;html=1;" parent="ThBzMi0ufhQ06vsTrHwR-52" vertex="1">
                    <mxGeometry y="60" width="140" height="30" as="geometry"/>
                </mxCell>
                <mxCell id="ThBzMi0ufhQ06vsTrHwR-55" value="+ pressButton()" style="text;strokeColor=none;fillColor=none;align=left;verticalAlign=middle;spacingLeft=4;spacingRight=4;overflow=hidden;points=[[0,0.5],[1,0.5]];portConstraint=eastwest;rotatable=0;whiteSpace=wrap;html=1;" parent="ThBzMi0ufhQ06vsTrHwR-52" vertex="1">
                    <mxGeometry y="90" width="140" height="30" as="geometry"/>
                </mxCell>
                <mxCell id="ThBzMi0ufhQ06vsTrHwR-56" value="&amp;lt;&amp;lt;signal&amp;gt;&amp;gt; -&amp;nbsp;&lt;span style=&quot;text-align: center; white-space: nowrap;&quot;&gt;FloorEnum&lt;/span&gt;" style="text;strokeColor=none;fillColor=none;align=left;verticalAlign=middle;spacingLeft=4;spacingRight=4;overflow=hidden;points=[[0,0.5],[1,0.5]];portConstraint=eastwest;rotatable=0;whiteSpace=wrap;html=1;" parent="ThBzMi0ufhQ06vsTrHwR-52" vertex="1">
                    <mxGeometry y="120" width="140" height="30" as="geometry"/>
                </mxCell>
                <mxCell id="ThBzMi0ufhQ06vsTrHwR-57" value="" style="endArrow=classic;html=1;rounded=0;" parent="1" edge="1">
                    <mxGeometry width="50" height="50" relative="1" as="geometry">
                        <mxPoint x="878" y="470" as="sourcePoint"/>
                        <mxPoint x="878" y="520" as="targetPoint"/>
                    </mxGeometry>
                </mxCell>
                <mxCell id="ThBzMi0ufhQ06vsTrHwR-59" value="Lift" style="swimlane;fontStyle=0;childLayout=stackLayout;horizontal=1;startSize=30;horizontalStack=0;resizeParent=1;resizeParentMax=0;resizeLast=0;collapsible=1;marginBottom=0;whiteSpace=wrap;html=1;" parent="1" vertex="1">
                    <mxGeometry x="800" y="520" width="160" height="210" as="geometry"/>
                </mxCell>
                <mxCell id="ThBzMi0ufhQ06vsTrHwR-60" value="+ currentFloor()" style="text;strokeColor=none;fillColor=none;align=left;verticalAlign=middle;spacingLeft=4;spacingRight=4;overflow=hidden;points=[[0,0.5],[1,0.5]];portConstraint=eastwest;rotatable=0;whiteSpace=wrap;html=1;" parent="ThBzMi0ufhQ06vsTrHwR-59" vertex="1">
                    <mxGeometry y="30" width="160" height="30" as="geometry"/>
                </mxCell>
                <mxCell id="ThBzMi0ufhQ06vsTrHwR-61" value="+ floorReached(floor: Int)" style="text;strokeColor=none;fillColor=none;align=left;verticalAlign=middle;spacingLeft=4;spacingRight=4;overflow=hidden;points=[[0,0.5],[1,0.5]];portConstraint=eastwest;rotatable=0;whiteSpace=wrap;html=1;" parent="ThBzMi0ufhQ06vsTrHwR-59" vertex="1">
                    <mxGeometry y="60" width="160" height="30" as="geometry"/>
                </mxCell>
                <mxCell id="ThBzMi0ufhQ06vsTrHwR-62" value="&amp;lt;&amp;lt;reception&amp;gt;&amp;gt;" style="text;strokeColor=none;fillColor=none;align=left;verticalAlign=middle;spacingLeft=4;spacingRight=4;overflow=hidden;points=[[0,0.5],[1,0.5]];portConstraint=eastwest;rotatable=0;whiteSpace=wrap;html=1;" parent="ThBzMi0ufhQ06vsTrHwR-59" vertex="1">
                    <mxGeometry y="90" width="160" height="30" as="geometry"/>
                </mxCell>
                <mxCell id="ThBzMi0ufhQ06vsTrHwR-81" value="startMoving()" style="text;strokeColor=none;fillColor=none;align=left;verticalAlign=middle;spacingLeft=4;spacingRight=4;overflow=hidden;points=[[0,0.5],[1,0.5]];portConstraint=eastwest;rotatable=0;whiteSpace=wrap;html=1;" parent="ThBzMi0ufhQ06vsTrHwR-59" vertex="1">
                    <mxGeometry y="120" width="160" height="30" as="geometry"/>
                </mxCell>
                <mxCell id="ThBzMi0ufhQ06vsTrHwR-82" value="&amp;lt;&amp;lt;reception&amp;gt;&amp;gt;" style="text;strokeColor=none;fillColor=none;align=left;verticalAlign=middle;spacingLeft=4;spacingRight=4;overflow=hidden;points=[[0,0.5],[1,0.5]];portConstraint=eastwest;rotatable=0;whiteSpace=wrap;html=1;" parent="ThBzMi0ufhQ06vsTrHwR-59" vertex="1">
                    <mxGeometry y="150" width="160" height="30" as="geometry"/>
                </mxCell>
                <mxCell id="ThBzMi0ufhQ06vsTrHwR-83" value="stopMoving()" style="text;strokeColor=none;fillColor=none;align=left;verticalAlign=middle;spacingLeft=4;spacingRight=4;overflow=hidden;points=[[0,0.5],[1,0.5]];portConstraint=eastwest;rotatable=0;whiteSpace=wrap;html=1;" parent="ThBzMi0ufhQ06vsTrHwR-59" vertex="1">
                    <mxGeometry y="180" width="160" height="30" as="geometry"/>
                </mxCell>
                <mxCell id="ThBzMi0ufhQ06vsTrHwR-84" value="" style="endArrow=none;html=1;rounded=0;" parent="ThBzMi0ufhQ06vsTrHwR-59" edge="1">
                    <mxGeometry width="50" height="50" relative="1" as="geometry">
                        <mxPoint y="92" as="sourcePoint"/>
                        <mxPoint x="160" y="92" as="targetPoint"/>
                    </mxGeometry>
                </mxCell>
                <mxCell id="ThBzMi0ufhQ06vsTrHwR-75" value="&lt;span style=&quot;font-weight: 700;&quot;&gt;FloorEnum&lt;/span&gt;&lt;div style=&quot;font-weight: 700;&quot;&gt;&amp;lt;&amp;lt;enumeration&amp;gt;&amp;gt;&lt;/div&gt;" style="swimlane;fontStyle=0;childLayout=stackLayout;horizontal=1;startSize=30;horizontalStack=0;resizeParent=1;resizeParentMax=0;resizeLast=0;collapsible=1;marginBottom=0;whiteSpace=wrap;html=1;" parent="1" vertex="1">
                    <mxGeometry x="1010" y="320" width="160" height="180" as="geometry"/>
                </mxCell>
                <mxCell id="ThBzMi0ufhQ06vsTrHwR-76" value="1" style="text;strokeColor=none;fillColor=none;align=left;verticalAlign=middle;spacingLeft=4;spacingRight=4;overflow=hidden;points=[[0,0.5],[1,0.5]];portConstraint=eastwest;rotatable=0;whiteSpace=wrap;html=1;" parent="ThBzMi0ufhQ06vsTrHwR-75" vertex="1">
                    <mxGeometry y="30" width="160" height="30" as="geometry"/>
                </mxCell>
                <mxCell id="ThBzMi0ufhQ06vsTrHwR-77" value="2" style="text;strokeColor=none;fillColor=none;align=left;verticalAlign=middle;spacingLeft=4;spacingRight=4;overflow=hidden;points=[[0,0.5],[1,0.5]];portConstraint=eastwest;rotatable=0;whiteSpace=wrap;html=1;" parent="ThBzMi0ufhQ06vsTrHwR-75" vertex="1">
                    <mxGeometry y="60" width="160" height="30" as="geometry"/>
                </mxCell>
                <mxCell id="ThBzMi0ufhQ06vsTrHwR-78" value="3" style="text;strokeColor=none;fillColor=none;align=left;verticalAlign=middle;spacingLeft=4;spacingRight=4;overflow=hidden;points=[[0,0.5],[1,0.5]];portConstraint=eastwest;rotatable=0;whiteSpace=wrap;html=1;" parent="ThBzMi0ufhQ06vsTrHwR-75" vertex="1">
                    <mxGeometry y="90" width="160" height="30" as="geometry"/>
                </mxCell>
                <mxCell id="ThBzMi0ufhQ06vsTrHwR-79" value="4" style="text;strokeColor=none;fillColor=none;align=left;verticalAlign=middle;spacingLeft=4;spacingRight=4;overflow=hidden;points=[[0,0.5],[1,0.5]];portConstraint=eastwest;rotatable=0;whiteSpace=wrap;html=1;" parent="ThBzMi0ufhQ06vsTrHwR-75" vertex="1">
                    <mxGeometry y="120" width="160" height="30" as="geometry"/>
                </mxCell>
                <mxCell id="ThBzMi0ufhQ06vsTrHwR-80" value="5" style="text;strokeColor=none;fillColor=none;align=left;verticalAlign=middle;spacingLeft=4;spacingRight=4;overflow=hidden;points=[[0,0.5],[1,0.5]];portConstraint=eastwest;rotatable=0;whiteSpace=wrap;html=1;" parent="ThBzMi0ufhQ06vsTrHwR-75" vertex="1">
                    <mxGeometry y="150" width="160" height="30" as="geometry"/>
                </mxCell>
                <mxCell id="ThBzMi0ufhQ06vsTrHwR-96" value="P" style="rounded=0;whiteSpace=wrap;html=1;" parent="1" vertex="1">
                    <mxGeometry x="80" y="40" width="40" height="40" as="geometry"/>
                </mxCell>
                <mxCell id="ThBzMi0ufhQ06vsTrHwR-97" value="L" style="rounded=0;whiteSpace=wrap;html=1;" parent="1" vertex="1">
                    <mxGeometry x="240" y="40" width="40" height="40" as="geometry"/>
                </mxCell>
                <mxCell id="ThBzMi0ufhQ06vsTrHwR-100" value="" style="endArrow=classic;html=1;rounded=0;" parent="1" edge="1">
                    <mxGeometry width="50" height="50" relative="1" as="geometry">
                        <mxPoint x="100" y="120" as="sourcePoint"/>
                        <mxPoint x="260" y="120" as="targetPoint"/>
                    </mxGeometry>
                </mxCell>
                <mxCell id="ThBzMi0ufhQ06vsTrHwR-101" value="pressButton(floor:Int)" style="text;html=1;align=center;verticalAlign=middle;resizable=0;points=[];autosize=1;strokeColor=none;fillColor=none;" parent="1" vertex="1">
                    <mxGeometry x="110" y="98" width="140" height="30" as="geometry"/>
                </mxCell>
                <mxCell id="ThBzMi0ufhQ06vsTrHwR-102" value="loop" style="shape=umlFrame;whiteSpace=wrap;html=1;pointerEvents=0;" parent="1" vertex="1">
                    <mxGeometry x="30" y="140" width="280" height="130" as="geometry"/>
                </mxCell>
                <mxCell id="ThBzMi0ufhQ06vsTrHwR-103" value="" style="edgeStyle=elbowEdgeStyle;elbow=vertical;endArrow=classic;html=1;curved=0;rounded=0;endSize=8;startSize=8;" parent="1" edge="1">
                    <mxGeometry width="50" height="50" relative="1" as="geometry">
                        <mxPoint x="271" y="180" as="sourcePoint"/>
                        <mxPoint x="271" y="200" as="targetPoint"/>
                        <Array as="points">
                            <mxPoint x="311" y="180"/>
                        </Array>
                    </mxGeometry>
                </mxCell>
                <mxCell id="ThBzMi0ufhQ06vsTrHwR-104" value="startMoving()" style="text;html=1;align=center;verticalAlign=middle;resizable=0;points=[];autosize=1;strokeColor=none;fillColor=none;" parent="1" vertex="1">
                    <mxGeometry x="285" y="150" width="90" height="30" as="geometry"/>
                </mxCell>
                <mxCell id="ThBzMi0ufhQ06vsTrHwR-105" value="" style="endArrow=classic;html=1;rounded=0;" parent="1" edge="1">
                    <mxGeometry width="50" height="50" relative="1" as="geometry">
                        <mxPoint x="260" y="210" as="sourcePoint"/>
                        <mxPoint x="100" y="210" as="targetPoint"/>
                    </mxGeometry>
                </mxCell>
                <mxCell id="ThBzMi0ufhQ06vsTrHwR-106" value="floorReached(floor:Int)" style="text;html=1;align=center;verticalAlign=middle;resizable=0;points=[];autosize=1;strokeColor=none;fillColor=none;" parent="1" vertex="1">
                    <mxGeometry x="115" y="188" width="140" height="30" as="geometry"/>
                </mxCell>
                <mxCell id="ThBzMi0ufhQ06vsTrHwR-107" value="break" style="shape=umlFrame;whiteSpace=wrap;html=1;pointerEvents=0;" parent="1" vertex="1">
                    <mxGeometry x="110" y="147" width="140" height="33" as="geometry"/>
                </mxCell>
                <mxCell id="ThBzMi0ufhQ06vsTrHwR-108" value="destFloor ==&lt;div&gt;curFloor&lt;/div&gt;" style="text;html=1;align=center;verticalAlign=middle;resizable=0;points=[];autosize=1;strokeColor=none;fillColor=none;" parent="1" vertex="1">
                    <mxGeometry x="160" y="142" width="90" height="40" as="geometry"/>
                </mxCell>
                <mxCell id="ThBzMi0ufhQ06vsTrHwR-109" value="" style="endArrow=classic;html=1;rounded=0;" parent="1" edge="1">
                    <mxGeometry width="50" height="50" relative="1" as="geometry">
                        <mxPoint x="100" y="345" as="sourcePoint"/>
                        <mxPoint x="260" y="345" as="targetPoint"/>
                    </mxGeometry>
                </mxCell>
                <mxCell id="ThBzMi0ufhQ06vsTrHwR-110" value="pressDoors()" style="text;html=1;align=center;verticalAlign=middle;resizable=0;points=[];autosize=1;strokeColor=none;fillColor=none;" parent="1" vertex="1">
                    <mxGeometry x="135" y="320" width="90" height="30" as="geometry"/>
                </mxCell>
                <mxCell id="ThBzMi0ufhQ06vsTrHwR-111" value="stopMoving()" style="text;html=1;align=center;verticalAlign=middle;resizable=0;points=[];autosize=1;strokeColor=none;fillColor=none;" parent="1" vertex="1">
                    <mxGeometry x="290" y="275" width="90" height="30" as="geometry"/>
                </mxCell>
                <mxCell id="ThBzMi0ufhQ06vsTrHwR-112" value="" style="edgeStyle=elbowEdgeStyle;elbow=vertical;endArrow=classic;html=1;curved=0;rounded=0;endSize=8;startSize=8;" parent="1" edge="1">
                    <mxGeometry width="50" height="50" relative="1" as="geometry">
                        <mxPoint x="271" y="300" as="sourcePoint"/>
                        <mxPoint x="271" y="320" as="targetPoint"/>
                        <Array as="points">
                            <mxPoint x="311" y="300"/>
                        </Array>
                    </mxGeometry>
                </mxCell>
                <mxCell id="ThBzMi0ufhQ06vsTrHwR-114" value="" style="rounded=0;whiteSpace=wrap;html=1;" parent="1" vertex="1">
                    <mxGeometry x="261" y="80" width="10" height="280" as="geometry"/>
                </mxCell>
                <mxCell id="2" value="Text" style="text;html=1;strokeColor=none;fillColor=none;align=center;verticalAlign=middle;whiteSpace=wrap;rounded=0;" vertex="1" parent="1">
                    <mxGeometry x="500" y="340" width="60" height="30" as="geometry"/>
                </mxCell>
                <mxCell id="5" value="&lt;h1&gt;Basic task&lt;/h1&gt;&lt;div&gt;Passenger interacts with Lift by button. System enters a loop with break condition for reached floor. Lift messages to passenger a number of each reached floor. When lift stops, passenger opens doors by another button.&lt;/div&gt;" style="text;html=1;strokeColor=none;fillColor=none;spacing=5;spacingTop=-20;whiteSpace=wrap;overflow=hidden;rounded=0;" vertex="1" parent="1">
                    <mxGeometry x="95" y="380" width="190" height="120" as="geometry"/>
                </mxCell>
                <mxCell id="6" value="&lt;h1&gt;A&lt;/h1&gt;&lt;div&gt;Number of floors is specified in loop&lt;/div&gt;" style="text;html=1;strokeColor=none;fillColor=none;spacing=5;spacingTop=-20;whiteSpace=wrap;overflow=hidden;rounded=0;" vertex="1" parent="1">
                    <mxGeometry x="640" y="220" width="190" height="120" as="geometry"/>
                </mxCell>
                <mxCell id="7" value="&lt;h1&gt;B&lt;/h1&gt;&lt;div&gt;Doors are closed before selecting a floor&lt;/div&gt;" style="text;html=1;strokeColor=none;fillColor=none;spacing=5;spacingTop=-20;whiteSpace=wrap;overflow=hidden;rounded=0;" vertex="1" parent="1">
                    <mxGeometry x="915" y="218" width="190" height="120" as="geometry"/>
                </mxCell>
                <mxCell id="8" value="&lt;h1&gt;C&lt;/h1&gt;&lt;div&gt;Loop and Ingnore fragments are combined, because doors can't be opened before reaching required floor&lt;/div&gt;" style="text;html=1;strokeColor=none;fillColor=none;spacing=5;spacingTop=-20;whiteSpace=wrap;overflow=hidden;rounded=0;" vertex="1" parent="1">
                    <mxGeometry x="1275" y="211" width="190" height="120" as="geometry"/>
                </mxCell>
                <mxCell id="9" value="&lt;h1&gt;D&lt;/h1&gt;&lt;div&gt;Lift passes each floor in 3 seconds, so time of loop cycle is specified&lt;/div&gt;" style="text;html=1;strokeColor=none;fillColor=none;spacing=5;spacingTop=-20;whiteSpace=wrap;overflow=hidden;rounded=0;" vertex="1" parent="1">
                    <mxGeometry x="490" y="520" width="190" height="120" as="geometry"/>
                </mxCell>
                <mxCell id="10" value="&lt;h1&gt;E&lt;/h1&gt;&lt;div&gt;Class diagram with all needed classes and operations&lt;/div&gt;" style="text;html=1;strokeColor=none;fillColor=none;spacing=5;spacingTop=-20;whiteSpace=wrap;overflow=hidden;rounded=0;" vertex="1" parent="1">
                    <mxGeometry x="1020" y="520" width="190" height="120" as="geometry"/>
                </mxCell>
            </root>
        </mxGraphModel>
    </diagram>
</mxfile>